M48
;GenerationSoftware,Autodesk,EAGLE,9.6.2*%
;CreationDate,2020-09-15T18:24:52Z*%
FMAT,2
ICI,OFF
METRIC,TZ,000.000
T2C0.300
T1C1.100
%
G90
M71
T1
X30000Y35920
X30000Y46080
X30000Y43540
X30000Y41000
X30000Y38460
T2
X44000Y30000
X41690Y31880
X58000Y49000
X43540Y47950
X41390Y37420
X45000Y37000
X61000Y39000
X46250Y47190
X47300Y48000
X62330Y38750
X42760Y38600
X61630Y52160
X61000Y47000
X54000Y29000
X52000Y35000
X62310Y41640
X53000Y53000
X53000Y41000
X49260Y38390
X45540Y35860
X46980Y35400
X47370Y33450
X39350Y38790
X35230Y45190
X51630Y39940
X50560Y38620
X48000Y42000
X38980Y36290
M30