G04 EAGLE Gerber RS-274X export*
G75*
%MOMM*%
%FSLAX34Y34*%
%LPD*%
%INBottom Copper*%
%IPPOS*%
%AMOC8*
5,1,8,0,0,1.08239X$1,22.5*%
G01*
%ADD10R,1.270000X0.635000*%
%ADD11C,0.101600*%
%ADD12R,2.540000X1.270000*%
%ADD13R,1.270000X2.540000*%
%ADD14R,1.650000X1.650000*%
%ADD15C,1.650000*%
%ADD16C,0.706400*%
%ADD17C,0.250000*%
%ADD18C,0.200000*%
%ADD19C,0.254000*%
%ADD20C,2.000000*%


D10*
G36*
X371690Y490727D02*
X360693Y497076D01*
X363868Y502575D01*
X374865Y496226D01*
X371690Y490727D01*
G37*
G36*
X363690Y476870D02*
X352693Y483219D01*
X355868Y488718D01*
X366865Y482369D01*
X363690Y476870D01*
G37*
D11*
X368535Y501589D02*
X361784Y505487D01*
X345186Y482738D02*
X351937Y478840D01*
X350510Y484165D02*
X346612Y477413D01*
D12*
X336614Y449831D03*
D13*
G36*
X606221Y534414D02*
X615201Y543394D01*
X633161Y525434D01*
X624181Y516454D01*
X606221Y534414D01*
G37*
G36*
X591163Y518790D02*
X600143Y527770D01*
X618103Y509810D01*
X609123Y500830D01*
X591163Y518790D01*
G37*
D12*
X336500Y389900D03*
X336600Y429900D03*
X336700Y409900D03*
D13*
X493700Y410000D03*
D12*
X336200Y370200D03*
X500100Y284600D03*
D13*
X506300Y409800D03*
D12*
X499800Y533100D03*
X500100Y273100D03*
X499800Y545900D03*
D14*
X300000Y460800D03*
D15*
X300000Y435400D03*
X300000Y410000D03*
X300000Y384600D03*
X300000Y359200D03*
D16*
X616300Y521600D03*
D17*
X619691Y529924D01*
D16*
X352300Y451900D03*
X516300Y399400D03*
D18*
X516300Y393600D01*
X509900Y387200D01*
X506500Y387200D01*
X505600Y386200D01*
D16*
X505600Y386200D03*
X480000Y420000D03*
D18*
X500600Y399400D01*
X516300Y399400D01*
D16*
X440000Y300000D03*
D18*
X435700Y300000D01*
X416900Y318800D01*
D16*
X416900Y318800D03*
D18*
X336614Y449831D02*
X359779Y482996D01*
X359779Y482794D02*
X362573Y480000D01*
X410000Y480000D01*
X420000Y470000D01*
X506300Y409800D02*
X516300Y399800D01*
X516300Y399400D01*
X506300Y409800D02*
X506100Y410000D01*
X493700Y410000D01*
D19*
X325646Y460800D02*
X300000Y460800D01*
X325646Y460800D02*
X336614Y449831D01*
X338683Y451900D01*
X352300Y451900D01*
D18*
X396600Y451900D01*
X399250Y449250D01*
D20*
X420000Y470000D01*
D16*
X580000Y490000D03*
D18*
X604300Y514300D01*
X604633Y514300D01*
X339800Y370200D02*
X336200Y370200D01*
X339800Y370200D02*
X420000Y290000D01*
X500000Y290000D01*
X608500Y508500D02*
X604633Y512367D01*
X604633Y514300D01*
X500000Y290000D02*
X500100Y284600D01*
X499800Y533100D02*
X510000Y550000D01*
X550000Y550000D01*
X580000Y520000D01*
X600000Y520000D01*
X608500Y511500D01*
X608500Y508500D01*
X510000Y550000D02*
X500000Y540000D01*
X500000Y530000D01*
X500100Y284600D02*
X500100Y273100D01*
D19*
X325200Y359200D02*
X300000Y359200D01*
X325200Y359200D02*
X336200Y370200D01*
D18*
X500000Y290000D02*
X523500Y290000D01*
X530064Y283436D01*
X542719Y283436D01*
X644032Y384749D01*
X644032Y472968D01*
X608500Y508500D01*
D16*
X435400Y479500D03*
D18*
X418249Y496651D02*
X367779Y496651D01*
X418249Y496651D02*
X435400Y479500D01*
D16*
X413900Y374200D03*
D18*
X430000Y374200D01*
D16*
X450000Y370000D03*
X610000Y390000D03*
D18*
X540000Y320000D01*
X501700Y320000D01*
X460000Y320000D01*
X430000Y350000D01*
X430000Y374200D01*
D16*
X462500Y471900D03*
D18*
X501700Y346600D02*
X501700Y320000D01*
X445800Y374200D02*
X430000Y374200D01*
X445800Y374200D02*
X450000Y370000D01*
X464400Y470000D02*
X462500Y471900D01*
X522864Y367764D02*
X501700Y346600D01*
X469438Y470000D02*
X464400Y470000D01*
X522864Y416574D02*
X522864Y367764D01*
X522864Y416574D02*
X469438Y470000D01*
D16*
X473000Y480000D03*
D18*
X517400Y524400D01*
X623300Y397800D02*
X623300Y387500D01*
D16*
X623300Y387500D03*
X427600Y386000D03*
D18*
X425500Y383900D01*
X414317Y383900D01*
X407336Y376919D01*
X407336Y366962D01*
X458330Y315968D01*
X551768Y315968D01*
X623300Y387500D01*
X517400Y524400D02*
X517400Y526683D01*
X527281Y536564D01*
X532719Y536564D01*
X562900Y506383D01*
X562900Y493100D01*
X629664Y426336D02*
X629664Y404164D01*
X623300Y397800D01*
X629664Y426336D02*
X562900Y493100D01*
D16*
X389800Y362900D03*
D18*
X390056Y369944D01*
D16*
X610000Y470000D03*
X540000Y290000D03*
D18*
X633696Y446304D02*
X610000Y470000D01*
X633696Y446304D02*
X633696Y383696D01*
X540000Y290000D01*
D16*
X520000Y350000D03*
D18*
X586400Y416400D01*
X623100Y416400D01*
D16*
X623100Y416400D03*
X530000Y530000D03*
D18*
X530000Y410000D01*
D16*
X530000Y410000D03*
D18*
X340000Y429900D02*
X336600Y429900D01*
X340000Y429900D02*
X446600Y429900D01*
X492600Y383900D01*
D16*
X492600Y383900D03*
D19*
X336600Y429900D02*
X331100Y435400D01*
X334500Y435400D02*
X300000Y435400D01*
X334500Y435400D02*
X340000Y429900D01*
D18*
X340000Y409900D02*
X336700Y409900D01*
X340000Y409900D02*
X432400Y409900D01*
X463600Y378700D01*
X463400Y367700D01*
X455400Y358600D01*
D16*
X455400Y358600D03*
D19*
X336700Y409900D02*
X325500Y409900D01*
X339900Y410000D02*
X300000Y410000D01*
X339900Y410000D02*
X340000Y409900D01*
D16*
X469800Y354000D03*
D18*
X473500Y350000D01*
X473700Y334500D01*
D16*
X473700Y334500D03*
X393500Y387900D03*
D18*
X338500Y387900D01*
X338200Y388200D01*
X336500Y389900D01*
D19*
X338200Y388200D02*
X334600Y384600D01*
X303600Y388200D02*
X300000Y384600D01*
X303600Y388200D02*
X338200Y388200D01*
M02*
