G04 EAGLE Gerber RS-274X export*
G75*
%MOMM*%
%FSLAX34Y34*%
%LPD*%
%INSilkscreen Bottom*%
%IPPOS*%
%AMOC8*
5,1,8,0,0,1.08239X$1,22.5*%
G01*
%ADD10C,0.127000*%
%ADD11C,0.101600*%


D10*
X331602Y507722D02*
X331604Y507785D01*
X331610Y507847D01*
X331620Y507909D01*
X331633Y507971D01*
X331651Y508031D01*
X331672Y508090D01*
X331697Y508148D01*
X331726Y508204D01*
X331758Y508258D01*
X331793Y508310D01*
X331831Y508359D01*
X331873Y508407D01*
X331917Y508451D01*
X331965Y508493D01*
X332014Y508531D01*
X332066Y508566D01*
X332120Y508598D01*
X332176Y508627D01*
X332234Y508652D01*
X332293Y508673D01*
X332353Y508691D01*
X332415Y508704D01*
X332477Y508714D01*
X332539Y508720D01*
X332602Y508722D01*
X332665Y508720D01*
X332727Y508714D01*
X332789Y508704D01*
X332851Y508691D01*
X332911Y508673D01*
X332970Y508652D01*
X333028Y508627D01*
X333084Y508598D01*
X333138Y508566D01*
X333190Y508531D01*
X333239Y508493D01*
X333287Y508451D01*
X333331Y508407D01*
X333373Y508359D01*
X333411Y508310D01*
X333446Y508258D01*
X333478Y508204D01*
X333507Y508148D01*
X333532Y508090D01*
X333553Y508031D01*
X333571Y507971D01*
X333584Y507909D01*
X333594Y507847D01*
X333600Y507785D01*
X333602Y507722D01*
X333600Y507659D01*
X333594Y507597D01*
X333584Y507535D01*
X333571Y507473D01*
X333553Y507413D01*
X333532Y507354D01*
X333507Y507296D01*
X333478Y507240D01*
X333446Y507186D01*
X333411Y507134D01*
X333373Y507085D01*
X333331Y507037D01*
X333287Y506993D01*
X333239Y506951D01*
X333190Y506913D01*
X333138Y506878D01*
X333084Y506846D01*
X333028Y506817D01*
X332970Y506792D01*
X332911Y506771D01*
X332851Y506753D01*
X332789Y506740D01*
X332727Y506730D01*
X332665Y506724D01*
X332602Y506722D01*
X332539Y506724D01*
X332477Y506730D01*
X332415Y506740D01*
X332353Y506753D01*
X332293Y506771D01*
X332234Y506792D01*
X332176Y506817D01*
X332120Y506846D01*
X332066Y506878D01*
X332014Y506913D01*
X331965Y506951D01*
X331917Y506993D01*
X331873Y507037D01*
X331831Y507085D01*
X331793Y507134D01*
X331758Y507186D01*
X331726Y507240D01*
X331697Y507296D01*
X331672Y507354D01*
X331651Y507413D01*
X331633Y507473D01*
X331620Y507535D01*
X331610Y507597D01*
X331604Y507659D01*
X331602Y507722D01*
X308519Y507722D02*
X308526Y508313D01*
X308548Y508904D01*
X308584Y509494D01*
X308635Y510083D01*
X308700Y510670D01*
X308780Y511256D01*
X308874Y511839D01*
X308982Y512420D01*
X309104Y512999D01*
X309241Y513574D01*
X309391Y514145D01*
X309556Y514713D01*
X309735Y515276D01*
X309927Y515835D01*
X310133Y516389D01*
X310352Y516938D01*
X310585Y517481D01*
X310831Y518019D01*
X311090Y518550D01*
X311363Y519075D01*
X311648Y519592D01*
X311945Y520103D01*
X312255Y520606D01*
X312578Y521102D01*
X312912Y521589D01*
X313258Y522068D01*
X313616Y522539D01*
X313986Y523000D01*
X314366Y523452D01*
X314758Y523895D01*
X315160Y524328D01*
X315573Y524751D01*
X315996Y525164D01*
X316429Y525566D01*
X316872Y525958D01*
X317324Y526338D01*
X317785Y526708D01*
X318256Y527066D01*
X318735Y527412D01*
X319222Y527746D01*
X319718Y528069D01*
X320221Y528379D01*
X320732Y528676D01*
X321249Y528961D01*
X321774Y529234D01*
X322305Y529493D01*
X322843Y529739D01*
X323386Y529972D01*
X323935Y530191D01*
X324489Y530397D01*
X325048Y530589D01*
X325611Y530768D01*
X326179Y530933D01*
X326750Y531083D01*
X327325Y531220D01*
X327904Y531342D01*
X328485Y531450D01*
X329068Y531544D01*
X329654Y531624D01*
X330241Y531689D01*
X330830Y531740D01*
X331420Y531776D01*
X332011Y531798D01*
X332602Y531805D01*
X333193Y531798D01*
X333784Y531776D01*
X334374Y531740D01*
X334963Y531689D01*
X335550Y531624D01*
X336136Y531544D01*
X336719Y531450D01*
X337300Y531342D01*
X337879Y531220D01*
X338454Y531083D01*
X339025Y530933D01*
X339593Y530768D01*
X340156Y530589D01*
X340715Y530397D01*
X341269Y530191D01*
X341818Y529972D01*
X342361Y529739D01*
X342899Y529493D01*
X343430Y529234D01*
X343955Y528961D01*
X344472Y528676D01*
X344983Y528379D01*
X345486Y528069D01*
X345982Y527746D01*
X346469Y527412D01*
X346948Y527066D01*
X347419Y526708D01*
X347880Y526338D01*
X348332Y525958D01*
X348775Y525566D01*
X349208Y525164D01*
X349631Y524751D01*
X350044Y524328D01*
X350446Y523895D01*
X350838Y523452D01*
X351218Y523000D01*
X351588Y522539D01*
X351946Y522068D01*
X352292Y521589D01*
X352626Y521102D01*
X352949Y520606D01*
X353259Y520103D01*
X353556Y519592D01*
X353841Y519075D01*
X354114Y518550D01*
X354373Y518019D01*
X354619Y517481D01*
X354852Y516938D01*
X355071Y516389D01*
X355277Y515835D01*
X355469Y515276D01*
X355648Y514713D01*
X355813Y514145D01*
X355963Y513574D01*
X356100Y512999D01*
X356222Y512420D01*
X356330Y511839D01*
X356424Y511256D01*
X356504Y510670D01*
X356569Y510083D01*
X356620Y509494D01*
X356656Y508904D01*
X356678Y508313D01*
X356685Y507722D01*
X356678Y507131D01*
X356656Y506540D01*
X356620Y505950D01*
X356569Y505361D01*
X356504Y504774D01*
X356424Y504188D01*
X356330Y503605D01*
X356222Y503024D01*
X356100Y502445D01*
X355963Y501870D01*
X355813Y501299D01*
X355648Y500731D01*
X355469Y500168D01*
X355277Y499609D01*
X355071Y499055D01*
X354852Y498506D01*
X354619Y497963D01*
X354373Y497425D01*
X354114Y496894D01*
X353841Y496369D01*
X353556Y495852D01*
X353259Y495341D01*
X352949Y494838D01*
X352626Y494342D01*
X352292Y493855D01*
X351946Y493376D01*
X351588Y492905D01*
X351218Y492444D01*
X350838Y491992D01*
X350446Y491549D01*
X350044Y491116D01*
X349631Y490693D01*
X349208Y490280D01*
X348775Y489878D01*
X348332Y489486D01*
X347880Y489106D01*
X347419Y488736D01*
X346948Y488378D01*
X346469Y488032D01*
X345982Y487698D01*
X345486Y487375D01*
X344983Y487065D01*
X344472Y486768D01*
X343955Y486483D01*
X343430Y486210D01*
X342899Y485951D01*
X342361Y485705D01*
X341818Y485472D01*
X341269Y485253D01*
X340715Y485047D01*
X340156Y484855D01*
X339593Y484676D01*
X339025Y484511D01*
X338454Y484361D01*
X337879Y484224D01*
X337300Y484102D01*
X336719Y483994D01*
X336136Y483900D01*
X335550Y483820D01*
X334963Y483755D01*
X334374Y483704D01*
X333784Y483668D01*
X333193Y483646D01*
X332602Y483639D01*
X332011Y483646D01*
X331420Y483668D01*
X330830Y483704D01*
X330241Y483755D01*
X329654Y483820D01*
X329068Y483900D01*
X328485Y483994D01*
X327904Y484102D01*
X327325Y484224D01*
X326750Y484361D01*
X326179Y484511D01*
X325611Y484676D01*
X325048Y484855D01*
X324489Y485047D01*
X323935Y485253D01*
X323386Y485472D01*
X322843Y485705D01*
X322305Y485951D01*
X321774Y486210D01*
X321249Y486483D01*
X320732Y486768D01*
X320221Y487065D01*
X319718Y487375D01*
X319222Y487698D01*
X318735Y488032D01*
X318256Y488378D01*
X317785Y488736D01*
X317324Y489106D01*
X316872Y489486D01*
X316429Y489878D01*
X315996Y490280D01*
X315573Y490693D01*
X315160Y491116D01*
X314758Y491549D01*
X314366Y491992D01*
X313986Y492444D01*
X313616Y492905D01*
X313258Y493376D01*
X312912Y493855D01*
X312578Y494342D01*
X312255Y494838D01*
X311945Y495341D01*
X311648Y495852D01*
X311363Y496369D01*
X311090Y496894D01*
X310831Y497425D01*
X310585Y497963D01*
X310352Y498506D01*
X310133Y499055D01*
X309927Y499609D01*
X309735Y500168D01*
X309556Y500731D01*
X309391Y501299D01*
X309241Y501870D01*
X309104Y502445D01*
X308982Y503024D01*
X308874Y503605D01*
X308780Y504188D01*
X308700Y504774D01*
X308635Y505361D01*
X308584Y505950D01*
X308548Y506540D01*
X308526Y507131D01*
X308519Y507722D01*
D11*
X379625Y453852D02*
X381574Y455801D01*
X385472Y455801D01*
X387421Y453852D01*
X387421Y446056D01*
X385472Y444107D01*
X381574Y444107D01*
X379625Y446056D01*
X379625Y449954D01*
X383523Y449954D01*
X375727Y444107D02*
X375727Y455801D01*
X367931Y444107D01*
X367931Y455801D01*
X364033Y455801D02*
X364033Y444107D01*
X358186Y444107D01*
X356237Y446056D01*
X356237Y453852D01*
X358186Y455801D01*
X364033Y455801D01*
X603040Y557176D02*
X608553Y551663D01*
X585495Y529339D02*
X579982Y534852D01*
X585495Y534852D02*
X579982Y529339D01*
X410462Y391402D02*
X410462Y379708D01*
X410462Y391402D02*
X404615Y391402D01*
X402666Y389453D01*
X402666Y385555D01*
X404615Y383606D01*
X410462Y383606D01*
X406564Y383606D02*
X402666Y379708D01*
X398768Y391402D02*
X390972Y391402D01*
X398768Y391402D02*
X398768Y379708D01*
X390972Y379708D01*
X394870Y385555D02*
X398768Y385555D01*
X381227Y391402D02*
X379278Y389453D01*
X381227Y391402D02*
X385125Y391402D01*
X387074Y389453D01*
X387074Y387504D01*
X385125Y385555D01*
X381227Y385555D01*
X379278Y383606D01*
X379278Y381657D01*
X381227Y379708D01*
X385125Y379708D01*
X387074Y381657D01*
X375380Y391402D02*
X367584Y391402D01*
X375380Y391402D02*
X375380Y379708D01*
X367584Y379708D01*
X371482Y385555D02*
X375380Y385555D01*
X359788Y379708D02*
X359788Y391402D01*
X363686Y391402D02*
X355890Y391402D01*
X387174Y419708D02*
X387174Y431402D01*
X381327Y431402D01*
X379378Y429453D01*
X379378Y425555D01*
X381327Y423606D01*
X387174Y423606D01*
X383276Y423606D02*
X379378Y419708D01*
X367684Y419708D02*
X375480Y431402D01*
X367684Y431402D02*
X375480Y419708D01*
X363786Y419708D02*
X363786Y431402D01*
X363786Y419708D02*
X357939Y419708D01*
X355990Y421657D01*
X355990Y429453D01*
X357939Y431402D01*
X363786Y431402D01*
X383376Y411402D02*
X383376Y399708D01*
X387274Y411402D02*
X379478Y411402D01*
X375580Y411402D02*
X367784Y399708D01*
X375580Y399708D02*
X367784Y411402D01*
X363886Y411402D02*
X363886Y399708D01*
X358039Y399708D01*
X356090Y401657D01*
X356090Y409453D01*
X358039Y411402D01*
X363886Y411402D01*
X389692Y370402D02*
X389692Y358708D01*
X389692Y370402D02*
X383845Y370402D01*
X381896Y368453D01*
X381896Y366504D01*
X383845Y364555D01*
X381896Y362606D01*
X381896Y360657D01*
X383845Y358708D01*
X389692Y358708D01*
X389692Y364555D02*
X383845Y364555D01*
X377998Y366504D02*
X377998Y358708D01*
X377998Y366504D02*
X374100Y370402D01*
X370202Y366504D01*
X370202Y358708D01*
X370202Y364555D02*
X377998Y364555D01*
X362406Y358708D02*
X362406Y370402D01*
X366304Y370402D02*
X358508Y370402D01*
M02*
