G04 EAGLE Gerber RS-274X export*
G75*
%MOMM*%
%FSLAX34Y34*%
%LPD*%
%INSolderpaste Top*%
%IPPOS*%
%AMOC8*
5,1,8,0,0,1.08239X$1,22.5*%
G01*
%ADD10R,1.000000X1.400000*%
%ADD11R,0.750000X0.700000*%
%ADD12R,1.143000X1.016000*%
%ADD13C,0.250000*%
%ADD14R,1.200000X0.500000*%
%ADD15R,1.250000X1.000000*%
%ADD16R,0.400000X1.350000*%
%ADD17R,1.250000X1.600000*%
%ADD18R,1.500000X1.000000*%
%ADD19R,1.000000X1.500000*%
%ADD20R,0.508000X1.473200*%


D10*
G36*
X572236Y467025D02*
X565165Y459954D01*
X555266Y469853D01*
X562337Y476924D01*
X572236Y467025D01*
G37*
G36*
X594510Y458186D02*
X587439Y451115D01*
X577540Y461014D01*
X584611Y468085D01*
X594510Y458186D01*
G37*
G36*
X581075Y444751D02*
X574004Y437680D01*
X564105Y447579D01*
X571176Y454650D01*
X581075Y444751D01*
G37*
D11*
X610400Y416800D03*
X598400Y416800D03*
X598400Y404800D03*
X610400Y404800D03*
D12*
X560160Y510000D03*
X539840Y501110D03*
X539840Y518890D03*
D13*
X430950Y429725D02*
X430950Y427225D01*
X428450Y427225D01*
X428450Y429725D01*
X430950Y429725D01*
X430950Y429600D02*
X428450Y429600D01*
X430950Y436475D02*
X430950Y438975D01*
X430950Y436475D02*
X428450Y436475D01*
X428450Y438975D01*
X430950Y438975D01*
X430950Y438850D02*
X428450Y438850D01*
X607175Y430550D02*
X609675Y430550D01*
X609675Y428050D01*
X607175Y428050D01*
X607175Y430550D01*
X607175Y430425D02*
X609675Y430425D01*
X600425Y430550D02*
X597925Y430550D01*
X600425Y430550D02*
X600425Y428050D01*
X597925Y428050D01*
X597925Y430550D01*
X597925Y430425D02*
X600425Y430425D01*
D14*
G36*
X413383Y348131D02*
X404899Y339647D01*
X401363Y343183D01*
X409847Y351667D01*
X413383Y348131D01*
G37*
G36*
X419039Y342474D02*
X410555Y333990D01*
X407019Y337526D01*
X415503Y346010D01*
X419039Y342474D01*
G37*
G36*
X424696Y336817D02*
X416212Y328333D01*
X412676Y331869D01*
X421160Y340353D01*
X424696Y336817D01*
G37*
G36*
X430353Y331160D02*
X421869Y322676D01*
X418333Y326212D01*
X426817Y334696D01*
X430353Y331160D01*
G37*
G36*
X436010Y325503D02*
X427526Y317019D01*
X423990Y320555D01*
X432474Y329039D01*
X436010Y325503D01*
G37*
G36*
X441667Y319847D02*
X433183Y311363D01*
X429647Y314899D01*
X438131Y323383D01*
X441667Y319847D01*
G37*
G36*
X443082Y330454D02*
X451566Y321970D01*
X448030Y318434D01*
X439546Y326918D01*
X443082Y330454D01*
G37*
G36*
X446617Y331869D02*
X455101Y340353D01*
X458637Y336817D01*
X450153Y328333D01*
X446617Y331869D01*
G37*
G36*
X440961Y337526D02*
X449445Y346010D01*
X452981Y342474D01*
X444497Y333990D01*
X440961Y337526D01*
G37*
G36*
X435304Y343183D02*
X443788Y351667D01*
X447324Y348131D01*
X438840Y339647D01*
X435304Y343183D01*
G37*
G36*
X429647Y348840D02*
X438131Y357324D01*
X441667Y353788D01*
X433183Y345304D01*
X429647Y348840D01*
G37*
G36*
X423990Y354497D02*
X432474Y362981D01*
X436010Y359445D01*
X427526Y350961D01*
X423990Y354497D01*
G37*
G36*
X418333Y360153D02*
X426817Y368637D01*
X430353Y365101D01*
X421869Y356617D01*
X418333Y360153D01*
G37*
G36*
X416918Y349546D02*
X408434Y358030D01*
X411970Y361566D01*
X420454Y353082D01*
X416918Y349546D01*
G37*
D13*
X470525Y310750D02*
X473025Y310750D01*
X470525Y310750D02*
X470525Y313250D01*
X473025Y313250D01*
X473025Y310750D01*
X473025Y313125D02*
X470525Y313125D01*
X479775Y310750D02*
X482275Y310750D01*
X479775Y310750D02*
X479775Y313250D01*
X482275Y313250D01*
X482275Y310750D01*
X482275Y313125D02*
X479775Y313125D01*
X462442Y514104D02*
X460675Y515871D01*
X462442Y514104D02*
X460675Y512337D01*
X458908Y514104D01*
X460675Y515871D01*
X461834Y514712D02*
X459516Y514712D01*
X455901Y520645D02*
X454134Y522412D01*
X455901Y520645D02*
X454134Y518878D01*
X452367Y520645D01*
X454134Y522412D01*
X455293Y521253D02*
X452975Y521253D01*
X478941Y498960D02*
X480708Y497193D01*
X478941Y495426D01*
X477174Y497193D01*
X478941Y498960D01*
X480100Y497801D02*
X477782Y497801D01*
X474167Y503734D02*
X472400Y505501D01*
X474167Y503734D02*
X472400Y501967D01*
X470633Y503734D01*
X472400Y505501D01*
X473559Y504342D02*
X471241Y504342D01*
X416659Y408800D02*
X414159Y408800D01*
X414159Y411300D01*
X416659Y411300D01*
X416659Y408800D01*
X416659Y411175D02*
X414159Y411175D01*
X423409Y408800D02*
X425909Y408800D01*
X423409Y408800D02*
X423409Y411300D01*
X425909Y411300D01*
X425909Y408800D01*
X425909Y411175D02*
X423409Y411175D01*
X399250Y401225D02*
X399250Y398725D01*
X396750Y398725D01*
X396750Y401225D01*
X399250Y401225D01*
X399250Y401100D02*
X396750Y401100D01*
X399250Y407975D02*
X399250Y410475D01*
X399250Y407975D02*
X396750Y407975D01*
X396750Y410475D01*
X399250Y410475D01*
X399250Y410350D02*
X396750Y410350D01*
X610550Y443825D02*
X610550Y446325D01*
X610550Y443825D02*
X608050Y443825D01*
X608050Y446325D01*
X610550Y446325D01*
X610550Y446200D02*
X608050Y446200D01*
X610550Y453075D02*
X610550Y455575D01*
X610550Y453075D02*
X608050Y453075D01*
X608050Y455575D01*
X610550Y455575D01*
X610550Y455450D02*
X608050Y455450D01*
D15*
G36*
X398433Y435454D02*
X407270Y444291D01*
X414341Y437220D01*
X405504Y428383D01*
X398433Y435454D01*
G37*
G36*
X387826Y446061D02*
X396663Y454898D01*
X403734Y447827D01*
X394897Y438990D01*
X387826Y446061D01*
G37*
D16*
G36*
X422665Y447141D02*
X419836Y449970D01*
X429381Y459515D01*
X432210Y456686D01*
X422665Y447141D01*
G37*
G36*
X418069Y451737D02*
X415240Y454566D01*
X424785Y464111D01*
X427614Y461282D01*
X418069Y451737D01*
G37*
G36*
X413473Y456333D02*
X410644Y459162D01*
X420189Y468707D01*
X423018Y465878D01*
X413473Y456333D01*
G37*
G36*
X408877Y460929D02*
X406048Y463758D01*
X415593Y473303D01*
X418422Y470474D01*
X408877Y460929D01*
G37*
G36*
X452717Y477193D02*
X449888Y480022D01*
X459433Y489567D01*
X462262Y486738D01*
X452717Y477193D01*
G37*
G36*
X448121Y481789D02*
X445292Y484618D01*
X454837Y494163D01*
X457666Y491334D01*
X448121Y481789D01*
G37*
G36*
X443525Y486385D02*
X440696Y489214D01*
X450241Y498759D01*
X453070Y495930D01*
X443525Y486385D01*
G37*
G36*
X438929Y490981D02*
X436100Y493810D01*
X445645Y503355D01*
X448474Y500526D01*
X438929Y490981D01*
G37*
D13*
X456050Y314875D02*
X456050Y312375D01*
X456050Y314875D02*
X458550Y314875D01*
X458550Y312375D01*
X456050Y312375D01*
X456050Y314750D02*
X458550Y314750D01*
X456050Y305625D02*
X456050Y303125D01*
X456050Y305625D02*
X458550Y305625D01*
X458550Y303125D01*
X456050Y303125D01*
X456050Y305500D02*
X458550Y305500D01*
X534750Y468325D02*
X534750Y470825D01*
X534750Y468325D02*
X532250Y468325D01*
X532250Y470825D01*
X534750Y470825D01*
X534750Y470700D02*
X532250Y470700D01*
X534750Y477575D02*
X534750Y480075D01*
X534750Y477575D02*
X532250Y477575D01*
X532250Y480075D01*
X534750Y480075D01*
X534750Y479950D02*
X532250Y479950D01*
X588550Y391075D02*
X588550Y388575D01*
X588550Y391075D02*
X591050Y391075D01*
X591050Y388575D01*
X588550Y388575D01*
X588550Y390950D02*
X591050Y390950D01*
X588550Y381825D02*
X588550Y379325D01*
X588550Y381825D02*
X591050Y381825D01*
X591050Y379325D01*
X588550Y379325D01*
X588550Y381700D02*
X591050Y381700D01*
X538322Y316365D02*
X540089Y314598D01*
X538322Y312831D01*
X536555Y314598D01*
X538322Y316365D01*
X539481Y315206D02*
X537163Y315206D01*
X533548Y321139D02*
X531781Y322906D01*
X533548Y321139D02*
X531781Y319372D01*
X530014Y321139D01*
X531781Y322906D01*
X532940Y321747D02*
X530622Y321747D01*
D17*
G36*
X556310Y340381D02*
X547471Y331542D01*
X536158Y342855D01*
X544997Y351694D01*
X556310Y340381D01*
G37*
G36*
X574695Y321996D02*
X565856Y313157D01*
X554543Y324470D01*
X563382Y333309D01*
X574695Y321996D01*
G37*
G36*
X580706Y364776D02*
X571867Y355937D01*
X560554Y367250D01*
X569393Y376089D01*
X580706Y364776D01*
G37*
G36*
X599090Y346392D02*
X590251Y337553D01*
X578938Y348866D01*
X587777Y357705D01*
X599090Y346392D01*
G37*
D18*
X476440Y549070D03*
X476490Y565100D03*
X476490Y581150D03*
X525480Y549030D03*
X525580Y565130D03*
X525580Y581200D03*
G36*
X552088Y534818D02*
X539098Y542318D01*
X544098Y550978D01*
X557088Y543478D01*
X552088Y534818D01*
G37*
G36*
X560147Y548675D02*
X547157Y556175D01*
X552157Y564835D01*
X565147Y557335D01*
X560147Y548675D01*
G37*
G36*
X568172Y562575D02*
X555182Y570075D01*
X560182Y578735D01*
X573172Y571235D01*
X568172Y562575D01*
G37*
G36*
X594538Y510263D02*
X581548Y517763D01*
X586548Y526423D01*
X599538Y518923D01*
X594538Y510263D01*
G37*
G36*
X602675Y524156D02*
X589685Y531656D01*
X594685Y540316D01*
X607675Y532816D01*
X602675Y524156D01*
G37*
G36*
X610710Y538073D02*
X597720Y545573D01*
X602720Y554233D01*
X615710Y546733D01*
X610710Y538073D01*
G37*
G36*
X607369Y492043D02*
X599869Y505033D01*
X608529Y510033D01*
X616029Y497043D01*
X607369Y492043D01*
G37*
G36*
X621276Y500014D02*
X613776Y513004D01*
X622436Y518004D01*
X629936Y505014D01*
X621276Y500014D01*
G37*
G36*
X635176Y508039D02*
X627676Y521029D01*
X636336Y526029D01*
X643836Y513039D01*
X635176Y508039D01*
G37*
G36*
X631854Y449553D02*
X624354Y462543D01*
X633014Y467543D01*
X640514Y454553D01*
X631854Y449553D01*
G37*
G36*
X645847Y457516D02*
X638347Y470506D01*
X647007Y475506D01*
X654507Y462516D01*
X645847Y457516D01*
G37*
G36*
X659764Y465551D02*
X652264Y478541D01*
X660924Y483541D01*
X668424Y470551D01*
X659764Y465551D01*
G37*
D19*
X638870Y433560D03*
X654900Y433510D03*
X670950Y433510D03*
X638830Y384520D03*
X654930Y384420D03*
X671000Y384420D03*
D18*
G36*
X624666Y357916D02*
X632166Y370906D01*
X640826Y365906D01*
X633326Y352916D01*
X624666Y357916D01*
G37*
G36*
X638523Y349858D02*
X646023Y362848D01*
X654683Y357848D01*
X647183Y344858D01*
X638523Y349858D01*
G37*
G36*
X652423Y341833D02*
X659923Y354823D01*
X668583Y349823D01*
X661083Y336833D01*
X652423Y341833D01*
G37*
G36*
X600111Y315466D02*
X607611Y328456D01*
X616271Y323456D01*
X608771Y310466D01*
X600111Y315466D01*
G37*
G36*
X614004Y307330D02*
X621504Y320320D01*
X630164Y315320D01*
X622664Y302330D01*
X614004Y307330D01*
G37*
G36*
X627921Y299295D02*
X635421Y312285D01*
X644081Y307285D01*
X636581Y294295D01*
X627921Y299295D01*
G37*
G36*
X581750Y302541D02*
X594740Y310041D01*
X599740Y301381D01*
X586750Y293881D01*
X581750Y302541D01*
G37*
G36*
X589722Y288634D02*
X602712Y296134D01*
X607712Y287474D01*
X594722Y279974D01*
X589722Y288634D01*
G37*
G36*
X597747Y274734D02*
X610737Y282234D01*
X615737Y273574D01*
X602747Y266074D01*
X597747Y274734D01*
G37*
G36*
X539260Y278056D02*
X552250Y285556D01*
X557250Y276896D01*
X544260Y269396D01*
X539260Y278056D01*
G37*
G36*
X547223Y264063D02*
X560213Y271563D01*
X565213Y262903D01*
X552223Y255403D01*
X547223Y264063D01*
G37*
G36*
X555258Y250146D02*
X568248Y257646D01*
X573248Y248986D01*
X560258Y241486D01*
X555258Y250146D01*
G37*
X523760Y270830D03*
X523710Y254800D03*
X523710Y238750D03*
X474720Y270870D03*
X474620Y254770D03*
X474620Y238700D03*
G36*
X448245Y285280D02*
X461235Y277780D01*
X456235Y269120D01*
X443245Y276620D01*
X448245Y285280D01*
G37*
G36*
X440187Y271423D02*
X453177Y263923D01*
X448177Y255263D01*
X435187Y262763D01*
X440187Y271423D01*
G37*
G36*
X432162Y257523D02*
X445152Y250023D01*
X440152Y241363D01*
X427162Y248863D01*
X432162Y257523D01*
G37*
G36*
X405795Y309835D02*
X418785Y302335D01*
X413785Y293675D01*
X400795Y301175D01*
X405795Y309835D01*
G37*
G36*
X397659Y295942D02*
X410649Y288442D01*
X405649Y279782D01*
X392659Y287282D01*
X397659Y295942D01*
G37*
G36*
X389624Y282025D02*
X402614Y274525D01*
X397614Y265865D01*
X384624Y273365D01*
X389624Y282025D01*
G37*
G36*
X392232Y328916D02*
X399732Y315926D01*
X391072Y310926D01*
X383572Y323916D01*
X392232Y328916D01*
G37*
G36*
X378325Y320944D02*
X385825Y307954D01*
X377165Y302954D01*
X369665Y315944D01*
X378325Y320944D01*
G37*
G36*
X364425Y312919D02*
X371925Y299929D01*
X363265Y294929D01*
X355765Y307919D01*
X364425Y312919D01*
G37*
G36*
X367747Y371406D02*
X375247Y358416D01*
X366587Y353416D01*
X359087Y366406D01*
X367747Y371406D01*
G37*
G36*
X353754Y363442D02*
X361254Y350452D01*
X352594Y345452D01*
X345094Y358442D01*
X353754Y363442D01*
G37*
G36*
X339837Y355407D02*
X347337Y342417D01*
X338677Y337417D01*
X331177Y350407D01*
X339837Y355407D01*
G37*
D19*
X360630Y386140D03*
X344600Y386190D03*
X328550Y386190D03*
X360670Y435180D03*
X344570Y435280D03*
X328500Y435280D03*
D18*
G36*
X375889Y463027D02*
X368389Y450037D01*
X359729Y455037D01*
X367229Y468027D01*
X375889Y463027D01*
G37*
G36*
X362031Y471086D02*
X354531Y458096D01*
X345871Y463096D01*
X353371Y476086D01*
X362031Y471086D01*
G37*
G36*
X348132Y479111D02*
X340632Y466121D01*
X331972Y471121D01*
X339472Y484111D01*
X348132Y479111D01*
G37*
G36*
X400443Y505477D02*
X392943Y492487D01*
X384283Y497487D01*
X391783Y510477D01*
X400443Y505477D01*
G37*
G36*
X386550Y513614D02*
X379050Y500624D01*
X370390Y505624D01*
X377890Y518614D01*
X386550Y513614D01*
G37*
G36*
X372633Y521649D02*
X365133Y508659D01*
X356473Y513659D01*
X363973Y526649D01*
X372633Y521649D01*
G37*
G36*
X418057Y517365D02*
X405067Y509865D01*
X400067Y518525D01*
X413057Y526025D01*
X418057Y517365D01*
G37*
G36*
X410085Y531272D02*
X397095Y523772D01*
X392095Y532432D01*
X405085Y539932D01*
X410085Y531272D01*
G37*
G36*
X402060Y545172D02*
X389070Y537672D01*
X384070Y546332D01*
X397060Y553832D01*
X402060Y545172D01*
G37*
G36*
X460546Y541850D02*
X447556Y534350D01*
X442556Y543010D01*
X455546Y550510D01*
X460546Y541850D01*
G37*
G36*
X452583Y555843D02*
X439593Y548343D01*
X434593Y557003D01*
X447583Y564503D01*
X452583Y555843D01*
G37*
G36*
X444548Y569760D02*
X431558Y562260D01*
X426558Y570920D01*
X439548Y578420D01*
X444548Y569760D01*
G37*
D20*
G36*
X516343Y357735D02*
X512751Y354143D01*
X502335Y364559D01*
X505927Y368151D01*
X516343Y357735D01*
G37*
G36*
X521911Y363303D02*
X518319Y359711D01*
X507903Y370127D01*
X511495Y373719D01*
X521911Y363303D01*
G37*
G36*
X527659Y369051D02*
X524067Y365459D01*
X513651Y375875D01*
X517243Y379467D01*
X527659Y369051D01*
G37*
G36*
X533226Y374618D02*
X529634Y371026D01*
X519218Y381442D01*
X522810Y385034D01*
X533226Y374618D01*
G37*
G36*
X538974Y380366D02*
X535382Y376774D01*
X524966Y387190D01*
X528558Y390782D01*
X538974Y380366D01*
G37*
G36*
X544541Y385933D02*
X540949Y382341D01*
X530533Y392757D01*
X534125Y396349D01*
X544541Y385933D01*
G37*
G36*
X550289Y391681D02*
X546697Y388089D01*
X536281Y398505D01*
X539873Y402097D01*
X550289Y391681D01*
G37*
G36*
X555857Y397249D02*
X552265Y393657D01*
X541849Y404073D01*
X545441Y407665D01*
X555857Y397249D01*
G37*
G36*
X545441Y412335D02*
X541849Y415927D01*
X552265Y426343D01*
X555857Y422751D01*
X545441Y412335D01*
G37*
G36*
X539873Y417903D02*
X536281Y421495D01*
X546697Y431911D01*
X550289Y428319D01*
X539873Y417903D01*
G37*
G36*
X534125Y423651D02*
X530533Y427243D01*
X540949Y437659D01*
X544541Y434067D01*
X534125Y423651D01*
G37*
G36*
X528558Y429218D02*
X524966Y432810D01*
X535382Y443226D01*
X538974Y439634D01*
X528558Y429218D01*
G37*
G36*
X522810Y434966D02*
X519218Y438558D01*
X529634Y448974D01*
X533226Y445382D01*
X522810Y434966D01*
G37*
G36*
X517243Y440533D02*
X513651Y444125D01*
X524067Y454541D01*
X527659Y450949D01*
X517243Y440533D01*
G37*
G36*
X511495Y446281D02*
X507903Y449873D01*
X518319Y460289D01*
X521911Y456697D01*
X511495Y446281D01*
G37*
G36*
X505927Y451849D02*
X502335Y455441D01*
X512751Y465857D01*
X516343Y462265D01*
X505927Y451849D01*
G37*
G36*
X497665Y455441D02*
X494073Y451849D01*
X483657Y462265D01*
X487249Y465857D01*
X497665Y455441D01*
G37*
G36*
X492097Y449873D02*
X488505Y446281D01*
X478089Y456697D01*
X481681Y460289D01*
X492097Y449873D01*
G37*
G36*
X486349Y444125D02*
X482757Y440533D01*
X472341Y450949D01*
X475933Y454541D01*
X486349Y444125D01*
G37*
G36*
X480782Y438558D02*
X477190Y434966D01*
X466774Y445382D01*
X470366Y448974D01*
X480782Y438558D01*
G37*
G36*
X475034Y432810D02*
X471442Y429218D01*
X461026Y439634D01*
X464618Y443226D01*
X475034Y432810D01*
G37*
G36*
X469467Y427243D02*
X465875Y423651D01*
X455459Y434067D01*
X459051Y437659D01*
X469467Y427243D01*
G37*
G36*
X463719Y421495D02*
X460127Y417903D01*
X449711Y428319D01*
X453303Y431911D01*
X463719Y421495D01*
G37*
G36*
X458151Y415927D02*
X454559Y412335D01*
X444143Y422751D01*
X447735Y426343D01*
X458151Y415927D01*
G37*
G36*
X447735Y393657D02*
X444143Y397249D01*
X454559Y407665D01*
X458151Y404073D01*
X447735Y393657D01*
G37*
G36*
X453303Y388089D02*
X449711Y391681D01*
X460127Y402097D01*
X463719Y398505D01*
X453303Y388089D01*
G37*
G36*
X459051Y382341D02*
X455459Y385933D01*
X465875Y396349D01*
X469467Y392757D01*
X459051Y382341D01*
G37*
G36*
X464618Y376774D02*
X461026Y380366D01*
X471442Y390782D01*
X475034Y387190D01*
X464618Y376774D01*
G37*
G36*
X470366Y371026D02*
X466774Y374618D01*
X477190Y385034D01*
X480782Y381442D01*
X470366Y371026D01*
G37*
G36*
X475933Y365459D02*
X472341Y369051D01*
X482757Y379467D01*
X486349Y375875D01*
X475933Y365459D01*
G37*
G36*
X481681Y359711D02*
X478089Y363303D01*
X488505Y373719D01*
X492097Y370127D01*
X481681Y359711D01*
G37*
G36*
X487249Y354143D02*
X483657Y357735D01*
X494073Y368151D01*
X497665Y364559D01*
X487249Y354143D01*
G37*
D13*
X452088Y451053D02*
X453855Y452820D01*
X452088Y451053D02*
X450321Y452820D01*
X452088Y454587D01*
X453855Y452820D01*
X453247Y453428D02*
X450929Y453428D01*
X458629Y457593D02*
X460396Y459360D01*
X458629Y457593D02*
X456862Y459360D01*
X458629Y461127D01*
X460396Y459360D01*
X459788Y459968D02*
X457470Y459968D01*
M02*
