G04 EAGLE Gerber RS-274X export*
G75*
%MOMM*%
%FSLAX34Y34*%
%LPD*%
%INSoldermask Top*%
%IPPOS*%
%AMOC8*
5,1,8,0,0,1.08239X$1,22.5*%
G01*
%ADD10R,1.203200X1.603200*%
%ADD11R,0.953200X0.903200*%
%ADD12R,1.346200X1.219200*%
%ADD13C,0.450047*%
%ADD14R,1.403200X0.703200*%
%ADD15R,1.453200X1.203200*%
%ADD16R,0.603200X1.553200*%
%ADD17R,1.453200X1.803200*%
%ADD18R,1.703200X1.203200*%
%ADD19R,1.203200X1.703200*%
%ADD20R,0.711200X1.676400*%
%ADD21R,1.853200X1.853200*%
%ADD22C,1.853200*%
%ADD23C,0.909600*%


D10*
G36*
X573673Y467025D02*
X565165Y458517D01*
X553829Y469853D01*
X562337Y478361D01*
X573673Y467025D01*
G37*
G36*
X595947Y458186D02*
X587439Y449678D01*
X576103Y461014D01*
X584611Y469522D01*
X595947Y458186D01*
G37*
G36*
X582512Y444751D02*
X574004Y436243D01*
X562668Y447579D01*
X571176Y456087D01*
X582512Y444751D01*
G37*
D11*
X610400Y416800D03*
X598400Y416800D03*
X598400Y404800D03*
X610400Y404800D03*
D12*
X560160Y510000D03*
X539840Y501110D03*
X539840Y518890D03*
D13*
X430966Y429741D02*
X430966Y427209D01*
X428434Y427209D01*
X428434Y429741D01*
X430966Y429741D01*
X430966Y436459D02*
X430966Y438991D01*
X430966Y436459D02*
X428434Y436459D01*
X428434Y438991D01*
X430966Y438991D01*
X607159Y430566D02*
X609691Y430566D01*
X609691Y428034D01*
X607159Y428034D01*
X607159Y430566D01*
X600441Y430566D02*
X597909Y430566D01*
X600441Y430566D02*
X600441Y428034D01*
X597909Y428034D01*
X597909Y430566D01*
D14*
G36*
X414820Y348131D02*
X404899Y338210D01*
X399926Y343183D01*
X409847Y353104D01*
X414820Y348131D01*
G37*
G36*
X420476Y342474D02*
X410555Y332553D01*
X405582Y337526D01*
X415503Y347447D01*
X420476Y342474D01*
G37*
G36*
X426133Y336817D02*
X416212Y326896D01*
X411239Y331869D01*
X421160Y341790D01*
X426133Y336817D01*
G37*
G36*
X431790Y331160D02*
X421869Y321239D01*
X416896Y326212D01*
X426817Y336133D01*
X431790Y331160D01*
G37*
G36*
X437447Y325503D02*
X427526Y315582D01*
X422553Y320555D01*
X432474Y330476D01*
X437447Y325503D01*
G37*
G36*
X443104Y319847D02*
X433183Y309926D01*
X428210Y314899D01*
X438131Y324820D01*
X443104Y319847D01*
G37*
G36*
X443082Y331891D02*
X453003Y321970D01*
X448030Y316997D01*
X438109Y326918D01*
X443082Y331891D01*
G37*
G36*
X445180Y331869D02*
X455101Y341790D01*
X460074Y336817D01*
X450153Y326896D01*
X445180Y331869D01*
G37*
G36*
X439524Y337526D02*
X449445Y347447D01*
X454418Y342474D01*
X444497Y332553D01*
X439524Y337526D01*
G37*
G36*
X433867Y343183D02*
X443788Y353104D01*
X448761Y348131D01*
X438840Y338210D01*
X433867Y343183D01*
G37*
G36*
X428210Y348840D02*
X438131Y358761D01*
X443104Y353788D01*
X433183Y343867D01*
X428210Y348840D01*
G37*
G36*
X422553Y354497D02*
X432474Y364418D01*
X437447Y359445D01*
X427526Y349524D01*
X422553Y354497D01*
G37*
G36*
X416896Y360153D02*
X426817Y370074D01*
X431790Y365101D01*
X421869Y355180D01*
X416896Y360153D01*
G37*
G36*
X416918Y348109D02*
X406997Y358030D01*
X411970Y363003D01*
X421891Y353082D01*
X416918Y348109D01*
G37*
D13*
X470509Y310734D02*
X473041Y310734D01*
X470509Y310734D02*
X470509Y313266D01*
X473041Y313266D01*
X473041Y310734D01*
X479759Y310734D02*
X482291Y310734D01*
X479759Y310734D02*
X479759Y313266D01*
X482291Y313266D01*
X482291Y310734D01*
X462465Y514104D02*
X460675Y515894D01*
X462465Y514104D02*
X460675Y512314D01*
X458885Y514104D01*
X460675Y515894D01*
X455924Y520645D02*
X454134Y522435D01*
X455924Y520645D02*
X454134Y518855D01*
X452344Y520645D01*
X454134Y522435D01*
X478941Y498983D02*
X480731Y497193D01*
X478941Y495403D01*
X477151Y497193D01*
X478941Y498983D01*
X474190Y503734D02*
X472400Y505524D01*
X474190Y503734D02*
X472400Y501944D01*
X470610Y503734D01*
X472400Y505524D01*
X416675Y408784D02*
X414143Y408784D01*
X414143Y411316D01*
X416675Y411316D01*
X416675Y408784D01*
X423393Y408784D02*
X425925Y408784D01*
X423393Y408784D02*
X423393Y411316D01*
X425925Y411316D01*
X425925Y408784D01*
X399266Y401241D02*
X399266Y398709D01*
X396734Y398709D01*
X396734Y401241D01*
X399266Y401241D01*
X399266Y407959D02*
X399266Y410491D01*
X399266Y407959D02*
X396734Y407959D01*
X396734Y410491D01*
X399266Y410491D01*
X610566Y443809D02*
X610566Y446341D01*
X610566Y443809D02*
X608034Y443809D01*
X608034Y446341D01*
X610566Y446341D01*
X610566Y453059D02*
X610566Y455591D01*
X610566Y453059D02*
X608034Y453059D01*
X608034Y455591D01*
X610566Y455591D01*
D15*
G36*
X396996Y435454D02*
X407270Y445728D01*
X415778Y437220D01*
X405504Y426946D01*
X396996Y435454D01*
G37*
G36*
X386389Y446061D02*
X396663Y456335D01*
X405171Y447827D01*
X394897Y437553D01*
X386389Y446061D01*
G37*
D16*
G36*
X422665Y445704D02*
X418399Y449970D01*
X429381Y460952D01*
X433647Y456686D01*
X422665Y445704D01*
G37*
G36*
X418069Y450300D02*
X413803Y454566D01*
X424785Y465548D01*
X429051Y461282D01*
X418069Y450300D01*
G37*
G36*
X413473Y454896D02*
X409207Y459162D01*
X420189Y470144D01*
X424455Y465878D01*
X413473Y454896D01*
G37*
G36*
X408877Y459492D02*
X404611Y463758D01*
X415593Y474740D01*
X419859Y470474D01*
X408877Y459492D01*
G37*
G36*
X452717Y475756D02*
X448451Y480022D01*
X459433Y491004D01*
X463699Y486738D01*
X452717Y475756D01*
G37*
G36*
X448121Y480352D02*
X443855Y484618D01*
X454837Y495600D01*
X459103Y491334D01*
X448121Y480352D01*
G37*
G36*
X443525Y484948D02*
X439259Y489214D01*
X450241Y500196D01*
X454507Y495930D01*
X443525Y484948D01*
G37*
G36*
X438929Y489544D02*
X434663Y493810D01*
X445645Y504792D01*
X449911Y500526D01*
X438929Y489544D01*
G37*
D13*
X456034Y314891D02*
X456034Y312359D01*
X456034Y314891D02*
X458566Y314891D01*
X458566Y312359D01*
X456034Y312359D01*
X456034Y305641D02*
X456034Y303109D01*
X456034Y305641D02*
X458566Y305641D01*
X458566Y303109D01*
X456034Y303109D01*
X534766Y468309D02*
X534766Y470841D01*
X534766Y468309D02*
X532234Y468309D01*
X532234Y470841D01*
X534766Y470841D01*
X534766Y477559D02*
X534766Y480091D01*
X534766Y477559D02*
X532234Y477559D01*
X532234Y480091D01*
X534766Y480091D01*
X588534Y391091D02*
X588534Y388559D01*
X588534Y391091D02*
X591066Y391091D01*
X591066Y388559D01*
X588534Y388559D01*
X588534Y381841D02*
X588534Y379309D01*
X588534Y381841D02*
X591066Y381841D01*
X591066Y379309D01*
X588534Y379309D01*
X538322Y316388D02*
X540112Y314598D01*
X538322Y312808D01*
X536532Y314598D01*
X538322Y316388D01*
X533571Y321139D02*
X531781Y322929D01*
X533571Y321139D02*
X531781Y319349D01*
X529991Y321139D01*
X531781Y322929D01*
D17*
G36*
X557747Y340381D02*
X547471Y330105D01*
X534721Y342855D01*
X544997Y353131D01*
X557747Y340381D01*
G37*
G36*
X576132Y321996D02*
X565856Y311720D01*
X553106Y324470D01*
X563382Y334746D01*
X576132Y321996D01*
G37*
G36*
X582143Y364776D02*
X571867Y354500D01*
X559117Y367250D01*
X569393Y377526D01*
X582143Y364776D01*
G37*
G36*
X600527Y346392D02*
X590251Y336116D01*
X577501Y348866D01*
X587777Y359142D01*
X600527Y346392D01*
G37*
D18*
X476440Y549070D03*
X476490Y565100D03*
X476490Y581150D03*
X525480Y549030D03*
X525580Y565130D03*
X525580Y581200D03*
G36*
X552460Y533430D02*
X537710Y541946D01*
X543726Y552366D01*
X558476Y543850D01*
X552460Y533430D01*
G37*
G36*
X560519Y547287D02*
X545769Y555803D01*
X551785Y566223D01*
X566535Y557707D01*
X560519Y547287D01*
G37*
G36*
X568544Y561187D02*
X553794Y569703D01*
X559810Y580123D01*
X574560Y571607D01*
X568544Y561187D01*
G37*
G36*
X594910Y508875D02*
X580160Y517391D01*
X586176Y527811D01*
X600926Y519295D01*
X594910Y508875D01*
G37*
G36*
X603047Y522768D02*
X588297Y531284D01*
X594313Y541704D01*
X609063Y533188D01*
X603047Y522768D01*
G37*
G36*
X611082Y536685D02*
X596332Y545201D01*
X602348Y555621D01*
X617098Y547105D01*
X611082Y536685D01*
G37*
G36*
X606997Y490655D02*
X598481Y505405D01*
X608901Y511421D01*
X617417Y496671D01*
X606997Y490655D01*
G37*
G36*
X620904Y498626D02*
X612388Y513376D01*
X622808Y519392D01*
X631324Y504642D01*
X620904Y498626D01*
G37*
G36*
X634804Y506651D02*
X626288Y521401D01*
X636708Y527417D01*
X645224Y512667D01*
X634804Y506651D01*
G37*
G36*
X631482Y448165D02*
X622966Y462915D01*
X633386Y468931D01*
X641902Y454181D01*
X631482Y448165D01*
G37*
G36*
X645475Y456128D02*
X636959Y470878D01*
X647379Y476894D01*
X655895Y462144D01*
X645475Y456128D01*
G37*
G36*
X659392Y464163D02*
X650876Y478913D01*
X661296Y484929D01*
X669812Y470179D01*
X659392Y464163D01*
G37*
D19*
X638870Y433560D03*
X654900Y433510D03*
X670950Y433510D03*
X638830Y384520D03*
X654930Y384420D03*
X671000Y384420D03*
D18*
G36*
X623278Y357544D02*
X631794Y372294D01*
X642214Y366278D01*
X633698Y351528D01*
X623278Y357544D01*
G37*
G36*
X637135Y349486D02*
X645651Y364236D01*
X656071Y358220D01*
X647555Y343470D01*
X637135Y349486D01*
G37*
G36*
X651035Y341461D02*
X659551Y356211D01*
X669971Y350195D01*
X661455Y335445D01*
X651035Y341461D01*
G37*
G36*
X598723Y315094D02*
X607239Y329844D01*
X617659Y323828D01*
X609143Y309078D01*
X598723Y315094D01*
G37*
G36*
X612616Y306958D02*
X621132Y321708D01*
X631552Y315692D01*
X623036Y300942D01*
X612616Y306958D01*
G37*
G36*
X626533Y298923D02*
X635049Y313673D01*
X645469Y307657D01*
X636953Y292907D01*
X626533Y298923D01*
G37*
G36*
X580362Y302913D02*
X595112Y311429D01*
X601128Y301009D01*
X586378Y292493D01*
X580362Y302913D01*
G37*
G36*
X588334Y289006D02*
X603084Y297522D01*
X609100Y287102D01*
X594350Y278586D01*
X588334Y289006D01*
G37*
G36*
X596359Y275106D02*
X611109Y283622D01*
X617125Y273202D01*
X602375Y264686D01*
X596359Y275106D01*
G37*
G36*
X537872Y278428D02*
X552622Y286944D01*
X558638Y276524D01*
X543888Y268008D01*
X537872Y278428D01*
G37*
G36*
X545835Y264435D02*
X560585Y272951D01*
X566601Y262531D01*
X551851Y254015D01*
X545835Y264435D01*
G37*
G36*
X553870Y250518D02*
X568620Y259034D01*
X574636Y248614D01*
X559886Y240098D01*
X553870Y250518D01*
G37*
X523760Y270830D03*
X523710Y254800D03*
X523710Y238750D03*
X474720Y270870D03*
X474620Y254770D03*
X474620Y238700D03*
G36*
X447873Y286668D02*
X462623Y278152D01*
X456607Y267732D01*
X441857Y276248D01*
X447873Y286668D01*
G37*
G36*
X439815Y272811D02*
X454565Y264295D01*
X448549Y253875D01*
X433799Y262391D01*
X439815Y272811D01*
G37*
G36*
X431790Y258911D02*
X446540Y250395D01*
X440524Y239975D01*
X425774Y248491D01*
X431790Y258911D01*
G37*
G36*
X405423Y311223D02*
X420173Y302707D01*
X414157Y292287D01*
X399407Y300803D01*
X405423Y311223D01*
G37*
G36*
X397287Y297330D02*
X412037Y288814D01*
X406021Y278394D01*
X391271Y286910D01*
X397287Y297330D01*
G37*
G36*
X389252Y283413D02*
X404002Y274897D01*
X397986Y264477D01*
X383236Y272993D01*
X389252Y283413D01*
G37*
G36*
X392604Y330304D02*
X401120Y315554D01*
X390700Y309538D01*
X382184Y324288D01*
X392604Y330304D01*
G37*
G36*
X378697Y322332D02*
X387213Y307582D01*
X376793Y301566D01*
X368277Y316316D01*
X378697Y322332D01*
G37*
G36*
X364797Y314307D02*
X373313Y299557D01*
X362893Y293541D01*
X354377Y308291D01*
X364797Y314307D01*
G37*
G36*
X368119Y372794D02*
X376635Y358044D01*
X366215Y352028D01*
X357699Y366778D01*
X368119Y372794D01*
G37*
G36*
X354126Y364830D02*
X362642Y350080D01*
X352222Y344064D01*
X343706Y358814D01*
X354126Y364830D01*
G37*
G36*
X340209Y356795D02*
X348725Y342045D01*
X338305Y336029D01*
X329789Y350779D01*
X340209Y356795D01*
G37*
D19*
X360630Y386140D03*
X344600Y386190D03*
X328550Y386190D03*
X360670Y435180D03*
X344570Y435280D03*
X328500Y435280D03*
D18*
G36*
X377277Y463399D02*
X368761Y448649D01*
X358341Y454665D01*
X366857Y469415D01*
X377277Y463399D01*
G37*
G36*
X363419Y471458D02*
X354903Y456708D01*
X344483Y462724D01*
X352999Y477474D01*
X363419Y471458D01*
G37*
G36*
X349520Y479483D02*
X341004Y464733D01*
X330584Y470749D01*
X339100Y485499D01*
X349520Y479483D01*
G37*
G36*
X401831Y505849D02*
X393315Y491099D01*
X382895Y497115D01*
X391411Y511865D01*
X401831Y505849D01*
G37*
G36*
X387938Y513986D02*
X379422Y499236D01*
X369002Y505252D01*
X377518Y520002D01*
X387938Y513986D01*
G37*
G36*
X374021Y522021D02*
X365505Y507271D01*
X355085Y513287D01*
X363601Y528037D01*
X374021Y522021D01*
G37*
G36*
X419445Y516993D02*
X404695Y508477D01*
X398679Y518897D01*
X413429Y527413D01*
X419445Y516993D01*
G37*
G36*
X411473Y530900D02*
X396723Y522384D01*
X390707Y532804D01*
X405457Y541320D01*
X411473Y530900D01*
G37*
G36*
X403448Y544800D02*
X388698Y536284D01*
X382682Y546704D01*
X397432Y555220D01*
X403448Y544800D01*
G37*
G36*
X461934Y541478D02*
X447184Y532962D01*
X441168Y543382D01*
X455918Y551898D01*
X461934Y541478D01*
G37*
G36*
X453971Y555471D02*
X439221Y546955D01*
X433205Y557375D01*
X447955Y565891D01*
X453971Y555471D01*
G37*
G36*
X445936Y569388D02*
X431186Y560872D01*
X425170Y571292D01*
X439920Y579808D01*
X445936Y569388D01*
G37*
D20*
G36*
X517780Y357735D02*
X512751Y352706D01*
X500898Y364559D01*
X505927Y369588D01*
X517780Y357735D01*
G37*
G36*
X523348Y363303D02*
X518319Y358274D01*
X506466Y370127D01*
X511495Y375156D01*
X523348Y363303D01*
G37*
G36*
X529096Y369051D02*
X524067Y364022D01*
X512214Y375875D01*
X517243Y380904D01*
X529096Y369051D01*
G37*
G36*
X534663Y374618D02*
X529634Y369589D01*
X517781Y381442D01*
X522810Y386471D01*
X534663Y374618D01*
G37*
G36*
X540411Y380366D02*
X535382Y375337D01*
X523529Y387190D01*
X528558Y392219D01*
X540411Y380366D01*
G37*
G36*
X545978Y385933D02*
X540949Y380904D01*
X529096Y392757D01*
X534125Y397786D01*
X545978Y385933D01*
G37*
G36*
X551726Y391681D02*
X546697Y386652D01*
X534844Y398505D01*
X539873Y403534D01*
X551726Y391681D01*
G37*
G36*
X557294Y397249D02*
X552265Y392220D01*
X540412Y404073D01*
X545441Y409102D01*
X557294Y397249D01*
G37*
G36*
X545441Y410898D02*
X540412Y415927D01*
X552265Y427780D01*
X557294Y422751D01*
X545441Y410898D01*
G37*
G36*
X539873Y416466D02*
X534844Y421495D01*
X546697Y433348D01*
X551726Y428319D01*
X539873Y416466D01*
G37*
G36*
X534125Y422214D02*
X529096Y427243D01*
X540949Y439096D01*
X545978Y434067D01*
X534125Y422214D01*
G37*
G36*
X528558Y427781D02*
X523529Y432810D01*
X535382Y444663D01*
X540411Y439634D01*
X528558Y427781D01*
G37*
G36*
X522810Y433529D02*
X517781Y438558D01*
X529634Y450411D01*
X534663Y445382D01*
X522810Y433529D01*
G37*
G36*
X517243Y439096D02*
X512214Y444125D01*
X524067Y455978D01*
X529096Y450949D01*
X517243Y439096D01*
G37*
G36*
X511495Y444844D02*
X506466Y449873D01*
X518319Y461726D01*
X523348Y456697D01*
X511495Y444844D01*
G37*
G36*
X505927Y450412D02*
X500898Y455441D01*
X512751Y467294D01*
X517780Y462265D01*
X505927Y450412D01*
G37*
G36*
X499102Y455441D02*
X494073Y450412D01*
X482220Y462265D01*
X487249Y467294D01*
X499102Y455441D01*
G37*
G36*
X493534Y449873D02*
X488505Y444844D01*
X476652Y456697D01*
X481681Y461726D01*
X493534Y449873D01*
G37*
G36*
X487786Y444125D02*
X482757Y439096D01*
X470904Y450949D01*
X475933Y455978D01*
X487786Y444125D01*
G37*
G36*
X482219Y438558D02*
X477190Y433529D01*
X465337Y445382D01*
X470366Y450411D01*
X482219Y438558D01*
G37*
G36*
X476471Y432810D02*
X471442Y427781D01*
X459589Y439634D01*
X464618Y444663D01*
X476471Y432810D01*
G37*
G36*
X470904Y427243D02*
X465875Y422214D01*
X454022Y434067D01*
X459051Y439096D01*
X470904Y427243D01*
G37*
G36*
X465156Y421495D02*
X460127Y416466D01*
X448274Y428319D01*
X453303Y433348D01*
X465156Y421495D01*
G37*
G36*
X459588Y415927D02*
X454559Y410898D01*
X442706Y422751D01*
X447735Y427780D01*
X459588Y415927D01*
G37*
G36*
X447735Y392220D02*
X442706Y397249D01*
X454559Y409102D01*
X459588Y404073D01*
X447735Y392220D01*
G37*
G36*
X453303Y386652D02*
X448274Y391681D01*
X460127Y403534D01*
X465156Y398505D01*
X453303Y386652D01*
G37*
G36*
X459051Y380904D02*
X454022Y385933D01*
X465875Y397786D01*
X470904Y392757D01*
X459051Y380904D01*
G37*
G36*
X464618Y375337D02*
X459589Y380366D01*
X471442Y392219D01*
X476471Y387190D01*
X464618Y375337D01*
G37*
G36*
X470366Y369589D02*
X465337Y374618D01*
X477190Y386471D01*
X482219Y381442D01*
X470366Y369589D01*
G37*
G36*
X475933Y364022D02*
X470904Y369051D01*
X482757Y380904D01*
X487786Y375875D01*
X475933Y364022D01*
G37*
G36*
X481681Y358274D02*
X476652Y363303D01*
X488505Y375156D01*
X493534Y370127D01*
X481681Y358274D01*
G37*
G36*
X487249Y352706D02*
X482220Y357735D01*
X494073Y369588D01*
X499102Y364559D01*
X487249Y352706D01*
G37*
D13*
X452088Y451030D02*
X453878Y452820D01*
X452088Y451030D02*
X450298Y452820D01*
X452088Y454610D01*
X453878Y452820D01*
X458629Y457570D02*
X460419Y459360D01*
X458629Y457570D02*
X456839Y459360D01*
X458629Y461150D01*
X460419Y459360D01*
D21*
X300000Y460800D03*
D22*
X300000Y435400D03*
X300000Y410000D03*
X300000Y384600D03*
X300000Y359200D03*
D23*
X616300Y521600D03*
X352300Y451900D03*
X516300Y399400D03*
X505600Y386200D03*
X480000Y420000D03*
X440000Y300000D03*
X416900Y318800D03*
X580000Y490000D03*
X435400Y479500D03*
X413900Y374200D03*
X450000Y370000D03*
X610000Y390000D03*
X462500Y471900D03*
X473000Y480000D03*
X623300Y387500D03*
X427600Y386000D03*
X389800Y362900D03*
X610000Y470000D03*
X540000Y290000D03*
X520000Y350000D03*
X623100Y416400D03*
X530000Y530000D03*
X530000Y410000D03*
X492600Y383900D03*
X455400Y358600D03*
X469800Y354000D03*
X473700Y334500D03*
X393500Y387900D03*
M02*
