<?xml version="1.0" encoding="utf-8"?>
<!-- Generator: Adobe Illustrator 25.2.1, SVG Export Plug-In . SVG Version: 6.00 Build 0)  -->
<svg version="1.1"
	 id="svg2703" xmlns:inkscape="http://www.inkscape.org/namespaces/inkscape" xmlns:sodipodi="http://sodipodi.sourceforge.net/DTD/sodipodi-0.dtd" xmlns:svg="http://www.w3.org/2000/svg"
	 xmlns="http://www.w3.org/2000/svg" xmlns:xlink="http://www.w3.org/1999/xlink" x="0px" y="0px" viewBox="0 0 864 864"
	 style="enable-background:new 0 0 864 864;" xml:space="preserve">
<style type="text/css">
	.st0{fill:none;stroke:#FF0000;stroke-width:7.200000e-02;stroke-linecap:round;stroke-miterlimit:11.3386;}
	.st1{fill:none;stroke:#FF0000;stroke-width:7.200000e-02;stroke-miterlimit:11.3386;}
</style>
<sodipodi:namedview  bordercolor="#000000" borderopacity="0.25" id="namedview2705" inkscape:current-layer="layer1" inkscape:cx="-21.611768" inkscape:cy="339.89416" inkscape:deskcolor="#d1d1d1" inkscape:document-units="mm" inkscape:pagecheckerboard="0" inkscape:pageopacity="0.0" inkscape:showpageshadow="2" inkscape:window-height="991" inkscape:window-maximized="1" inkscape:window-width="1920" inkscape:window-x="-9" inkscape:window-y="-9" inkscape:zoom="0.25449098" pagecolor="#ffffff" showgrid="false">
	</sodipodi:namedview>
<path id="path4" class="st0" d="M319.4,854.4h27.8v8.5h69.1v-8.5h27.8V742.9h8.5v-69.1h-8.5v-69.1h8.5v-69.1h-8.5v-69.1h8.5v-69.1
	h-8.5v-69.1h8.5v-69.1h-8.5v-69.1h8.5v-69.1h-8.5V52V9.6h-27.8V1.1h-69.1v8.5h-27.8v111.4h-8.5v69.1h8.5v69.1h-8.5v69.1h8.5v69.1
	h-8.5v69.1h8.5v69.1h-8.5v69.1h8.5v69.1h-8.5v69.1h8.5V812V854.4z"/>
<path id="path8" class="st0" d="M144,428.9v-109h8.5v-69.1H144v-69.1h8.5v-69.1H144V43.6V3.7h-27.8v8.5H47V3.7H19.2v109h-8.5v69.1
	h8.5v69.1h-8.5v69.1h8.5V389v39.9H47v-8.5h69.1v8.5L144,428.9z"/>
<path id="path10" class="st0" d="M144,854.1V753.6h8.5v-69.1H144v-69.1h8.5v-69.1H144v-69.1v-39.9h-27.8v8.5H47v-8.5H19.2v109h-8.5
	v69.1h8.5v69.1h-8.5v69.1h8.5v69.1v39.9H47v-8.5L144,854.1z"/>
<path id="path12" class="st0" d="M169.2,854.4H197v8.5h69.1v-8.5h27.8V742.9h8.5v-69.1h-8.5v-69.1h8.5v-69.1h-8.5v-69.1h8.5v-69.1
	h-8.5v-69.1h8.5v-69.1h-8.5v-69.1h8.5v-69.1h-8.5V52V9.6h-27.8V1.1H197v8.5h-27.8v111.4h-8.5v69.1h8.5v69.1h-8.5v69.1h8.5v69.1h-8.5
	v69.1h8.5v69.1h-8.5v69.1h8.5v69.1h-8.5v69.1h8.5V812V854.4z"/>
<path id="path28" class="st1" d="M549.7,46.6l18.4-6.1V20.9l11.4,15.9l18.4-6.1l-11.4,15.9l11.4,15.9l-18.4-6.1l-11.4,15.9V52.7
	L549.7,46.6z"/>
<path id="path30" class="st1" d="M495.7,46.6l18.4-6.1V20.9l11.4,15.9l18.4-6.1l-11.4,15.9l11.4,15.9l-18.4-6.1l-11.4,15.9V52.7
	L495.7,46.6z"/>
<path id="path32" class="st1" d="M602.9,257.3v58.5l-21.1-14.8v14.8L556,297.7v18.2l-21.8-15.3v15.3l-34-23.9h48.3v-10.8h-48.3
	l34-23.9v15.3l21.8-15.3v18.1l25.9-18.2v14.8L602.9,257.3z"/>
<path id="path34" class="st1" d="M548.7,364.9h54.3v24.5l-21-15.2v15.2l-25.8-18.6v18.6l-21.7-15.9v15.9l-41.7-30l41.7-30v15.5
	l21.7-15.5V348l25.8-18.6v15.2l21-15.2v24.5h-54.3V364.9z"/>
<path id="path36" class="st1" d="M598.4,93.1v59.3l-21.1-15v15L551.5,134v18.4l-21.8-15.5v15.5l-34-24.2H544v-10.9h-48.3l34-24.2
	v15.5l21.8-15.5v18.4l25.9-18.4v15L598.4,93.1z"/>
<path id="path38" class="st1" d="M548.7,210.4h54.3v24.5l-21-15.2v15.2l-25.8-18.6v18.6L534.4,219v15.9l-41.7-30l41.7-30v15.5
	l21.7-15.5v18.6l25.8-18.6V190l21-15.2v24.5h-54.3V210.4z"/>
</svg>
