<?xml version="1.0" encoding="utf-8"?>
<!-- Generator: Adobe Illustrator 25.2.1, SVG Export Plug-In . SVG Version: 6.00 Build 0)  -->
<svg version="1.1" id="Layer_1" xmlns="http://www.w3.org/2000/svg" xmlns:xlink="http://www.w3.org/1999/xlink" x="0px" y="0px"
	 viewBox="0 0 1728 1296" style="enable-background:new 0 0 1728 1296;" xml:space="preserve">
<style type="text/css">
	.st0{fill:none;stroke:#EC2024;stroke-width:7.200000e-02;stroke-linecap:round;stroke-miterlimit:11.3386;}
	.st1{fill:none;stroke:#EC2024;stroke-width:7.200000e-02;stroke-miterlimit:11.3386;}
	.st2{fill:#0000FF;}
	.st3{font-family:'MyriadPro-Regular';}
	.st4{font-size:12px;}
	.st5{fill:none;}
	.st6{font-size:18px;}
	.st7{font-size:14px;}
	.st8{font-size:10px;}
</style>
<path id="path2" class="st0" d="M14.3,447.1v109h8.5v69.1h-8.5v69.1h8.5v69.1h-8.5v69.1v39.9h119.9v-8.5h69.1v8.5h69.1v-8.5h69.1
	v8.5h69.1v-8.5h69.1v8.5h69.1v-8.5h69.1v8.5H687v-8.5h69.1v8.5h69.1H876v-109h-8.5v-69.1h8.5v-69.1h-8.5v-69.1h8.5V487v-39.9H756.1
	v8.5H687v-8.5h-69.1v8.5h-69.1v-8.5h-69.1v8.5h-69.1v-8.5h-69.1v8.5h-69.1v-8.5h-69.1v8.5h-69.1v-8.5H65.1H14.3z"/>
<path id="path6" class="st0" d="M14.3,13.4v109h8.5v69.1h-8.5v69.1h8.5v69.1h-8.5v69.1v39.9h119.9v-8.5h69.1v8.5h69.1v-8.5h69.1v8.5
	h69.1v-8.5h69.1v8.5h69.1v-8.5h69.1v8.5H687v-8.5h69.1v8.5h69.1H876v-109h-8.5v-69.1h8.5v-69.1h-8.5v-69.1h8.5V53.3V13.4H756.1v8.5
	H687v-8.5h-69.1v8.5h-69.1v-8.5h-69.1v8.5h-69.1v-8.5h-69.1v8.5h-69.1v-8.5h-69.1v8.5h-69.1v-8.5H65.1H14.3z"/>
<rect id="rect24" x="365.9" y="486.7" class="st1" width="247.7" height="202.7"/>
<rect id="rect26" x="272.3" y="487.4" class="st1" width="68.1" height="24.4"/>
<path id="path4" class="st0" d="M1218.7,864h27.8v8.5h69.1V864h27.8V752.5h8.5v-69.1h-8.5v-69.1h8.5v-69.1h-8.5v-69.1h8.5v-69.1
	h-8.5V338h8.5v-69.1h-8.5v-69.1h8.5v-69.1h-8.5V61.6V19.3h-27.8v-8.5h-69.1v8.5h-27.8v111.4h-8.5v69.1h8.5v69.1h-8.5V338h8.5v69.1
	h-8.5v69.1h8.5v69.1h-8.5v69.1h8.5v69.1h-8.5v69.1h8.5v69.1V864z"/>
<path id="path8" class="st0" d="M1043.2,438.5v-109h8.5v-69.1h-8.5v-69.1h8.5v-69.1h-8.5V53.2V13.3h-27.8v8.5h-69.1v-8.5h-27.8v109
	H910v69.1h8.5v69.1H910v69.1h8.5v69.1v39.9h27.8V430h69.1v8.5L1043.2,438.5z"/>
<path id="path10" class="st0" d="M1043.2,863.7V763.2h8.5v-69.1h-8.5v-69.1h8.5V556h-8.5v-69.1V447h-27.8v8.5h-69.1V447h-27.8v109
	H910v69.1h8.5v69.1H910v69.1h8.5v69.1v39.9h27.8v-8.5L1043.2,863.7z"/>
<path id="path12" class="st0" d="M1068.4,864h27.8v8.5h69.1V864h27.8V752.5h8.5v-69.1h-8.5v-69.1h8.5v-69.1h-8.5v-69.1h8.5v-69.1
	h-8.5V338h8.5v-69.1h-8.5v-69.1h8.5v-69.1h-8.5V61.6V19.3h-27.8v-8.5h-69.1v8.5h-27.8v111.4h-8.5v69.1h8.5v69.1h-8.5V338h8.5v69.1
	h-8.5v69.1h8.5v69.1h-8.5v69.1h8.5v69.1h-8.5v69.1h8.5v69.1V864z"/>
<path id="path28" class="st1" d="M1448.9,56.2l18.4-6.1V30.5l11.4,15.9l18.4-6.1l-11.4,15.9l11.4,15.9l-18.4-6.1l-11.4,15.9V62.3
	L1448.9,56.2z"/>
<path id="path30" class="st1" d="M1394.9,56.2l18.4-6.1V30.5l11.4,15.9l18.4-6.1l-11.4,15.9l11.4,15.9l-18.4-6.1l-11.4,15.9V62.3
	L1394.9,56.2z"/>
<path id="path32" class="st1" d="M1502.2,267v58.5l-21.1-14.8v14.8l-25.9-18.2v18.2l-21.8-15.3v15.3l-34-23.9h48.3v-10.8h-48.3
	l34-23.9v15.3l21.8-15.3v18.1l25.9-18.2v14.8L1502.2,267z"/>
<path id="path34" class="st1" d="M1447.9,374.5h54.3V399l-21-15.2V399l-25.8-18.6V399l-21.7-15.9V399l-41.7-30l41.7-30v15.5
	l21.7-15.5v18.6l25.8-18.6v15.2l21-15.2v24.5h-54.3V374.5z"/>
<path id="path36" class="st1" d="M1497.7,102.7V162l-21.1-15v15l-25.9-18.4V162l-21.8-15.5V162l-34-24.2h48.3v-10.9h-48.3l34-24.2
	v15.5l21.8-15.5v18.4l25.9-18.4v15L1497.7,102.7z"/>
<path id="path38" class="st1" d="M1447.9,220h54.3v24.5l-21-15.2v15.2l-25.8-18.6v18.6l-21.7-15.9v15.9l-41.7-30l41.7-30V200
	l21.7-15.5v18.6l25.8-18.6v15.2l21-15.2V209h-54.3V220z"/>
<rect x="339.4" y="726.2" class="st1" width="79.2" height="79.2"/>
<rect x="450.1" y="726.2" class="st1" width="79.2" height="79.2"/>
<rect x="560.8" y="726.2" class="st1" width="79.2" height="79.2"/>
<text transform="matrix(1 0 0 1 350.6589 825.0848)" class="st2 st3 st4">Reset Beats</text>
<text transform="matrix(1 0 0 1 454.6576 825.0845)" class="st2 st3 st4">Servo On / Off</text>
<text transform="matrix(1 0 0 1 560.6779 825.0848)" class="st2 st3 st4">Volume / Speed</text>
<rect x="76.7" y="730.9" class="st5" width="232.1" height="94.2"/>
<text transform="matrix(1 0 0 1 102.4857 743.6539)"><tspan x="0" y="0" class="st2 st3 st6">SoundWave Synthesizer</tspan><tspan x="38.1" y="16.8" class="st2 st3 st7">Interactive DJ Box</tspan><tspan x="-19.5" y="62.4" class="st2 st3 st8">By Khiem Pham, Sissel Sun and Tingrui (Freya) Zhang</tspan></text>
<rect x="686.3" y="487.4" class="st1" width="42.5" height="14.2"/>
<rect x="760.2" y="487.4" class="st1" width="42.5" height="14.2"/>
</svg>
