<?xml version="1.0" encoding="utf-8"?>
<!-- Generator: Adobe Illustrator 25.2.1, SVG Export Plug-In . SVG Version: 6.00 Build 0)  -->
<svg version="1.1" id="Layer_1" xmlns="http://www.w3.org/2000/svg" xmlns:xlink="http://www.w3.org/1999/xlink" x="0px" y="0px"
	 viewBox="0 0 864 864" style="enable-background:new 0 0 864 864;" xml:space="preserve">
<style type="text/css">
	.st0{fill:none;stroke:#EB2627;stroke-width:7.200000e-02;stroke-linecap:round;stroke-miterlimit:11.3386;}
	.st1{fill:none;stroke:#ED1C24;stroke-width:7.200000e-02;}
</style>
<path id="path12" class="st0" d="M17.3,854.4h27.8v8.5h69.1l0.1-44.3h27.8l-0.1-75.7h8.5v-69.1h-8.5v-69.1h8.5v-69.1h-8.5v-69.1h8.5
	v-69.1h-8.5v-69.1h8.5v-69.1h-8.5v-69.1h8.5v-69.1h-8.5V52.1V9.7h-27.8V1.2H45.1v8.5H17.3v111.4H8.8v69.1h8.5v69.1H8.8v69.1h8.5
	v69.1H8.8v69.1h8.5v69.1H8.8v69.1h8.5v69.1H8.8V743h8.5v69.1V854.4z"/>
<path class="st1" d="M187.7,856.1c10.6-2.7,13.9-11,14.2-14.9c6.5,2.6,21.3,7.7,28.9,7.7c9.5,0,36.4-10.5,48.8-8.6
	c9.8,1.5,24.3-1.9,30.3-3.8c1.4-4.8,1.7-14.1-8.5-12.9c-10.2,1.1-37.1,3-49.2,3.8c2.5-4.5,8.6-13.7,12.8-14.9
	c5.2-1.4,14.2,3.8,19.4,2.9s8-5.7,6.6-11.5c-1.4-5.7-13.7-5.3-16.1-6.7c-2.4-1.4-16.1-1.9-20.4,1.4c-4.3,3.4-12.3,15.3-16.6,16.8
	c-4.3,1.4-14.2-5.7-18-7.7c-3.8-1.9,0-6.7,6.2-9.1s10.4,6.2,14.2,7.2c3.8,1,5.7-3.4,5.7-8.1c0-4.8-16.6-14.4-23.7-14.4
	c-7.1,0-11.4,5.3-14.7,10.5c-3.3,5.3-6.6,18.7-10.9,19.2c-4.3,0.5-3.8-5.3-5.7-9.6c-1.9-4.3-13.7-6.7-20.4-2.4
	c-6.6,4.3-5.7,16.3,5.7,20.6c11.4,4.3,13.7,0,15.6,2.9c1.9,2.9-9.5,17.7-14.7,19.2c-5.2,1.4-18.9-8.6-25.6-4.3
	c-5.3,3.4,8.5,11.7,16.1,15.3C170,856.2,177.1,858.7,187.7,856.1z"/>
<path class="st1" d="M305.1,719.3c7.6,1.1,5.7,7.7,3.8,10.9c-5.2,0.6-16.6,2.3-20.4,3.8c-4.7,1.9,0,6.1-11.9,10.4
	c-11.9,4.3-41.7,1.9-46,1.9c-4.3,0-20.9,2.8-23.2,7.6c-2.4,4.7-18.5,13.7-27.5,12.3c-9-1.4-12.3-2.8-11.9-8.5
	c0.5-5.7,7.6-2.8,15.2-3.8c7.6-0.9,9.5-6.1,10.4-9.5c0.9-3.3,3.8-12.8,0-12.3c-3.8,0.5-5.2,7.6-9,8.5c-3.8,0.9-18-0.9-18-13.7
	c0-12.8,10.9-12.3,18-11.3c7.1,0.9,4.3,8.5,8.1,9.9c3,1.1,3.5-2,3.3-3.8v-33.1c0-20.3,0.9-17.5,7.6-18c6.6-0.5,5.2,10.9,7.6,18
	c2.4,7.1-3.3,27.4,1.4,28.4c4.7,0.9,13.3-9,20.4-16.5c7.1-7.6,7.6-3.8,15.7-20.3c8.1-16.5,2.8-20.8,7.1-20.8c4.3,0,7.1,4.7,9,13.7
	c1.9,9-10.9,23.6-5.2,23.6c5.7,0,9.5,18.4,19.9,22.7C289.9,723.5,295.6,717.9,305.1,719.3z"/>
</svg>
