<svg width="200" height="162" viewBox="0 0 200 162" fill="none" xmlns="http://www.w3.org/2000/svg">
<path d="M2.17733 38.1558C4.86027 48.7588 13.1965 52.0407 17.0293 52.3562C14.4742 58.8254 9.36383 73.657 9.36383 81.2306C9.36383 90.6975 19.9039 117.678 17.9876 129.985C16.4545 139.831 19.9039 154.284 21.8203 160.28C26.6113 161.7 35.9058 161.984 34.7559 151.759C33.6061 141.535 31.7217 114.68 30.9232 102.531C35.3947 105.056 44.6253 111.146 45.7751 115.312C47.2124 120.518 41.9424 129.512 42.9006 134.719C43.8588 139.926 48.6497 142.766 54.3989 141.346C60.148 139.926 59.6689 127.619 61.1062 125.252C62.5435 122.885 63.0226 109.158 59.6689 104.898C56.3153 100.638 44.3378 92.5909 42.9006 88.3308C41.4633 84.0707 48.6497 74.1304 50.5661 70.3436C52.4825 66.5568 57.2734 70.3436 59.6689 76.4971C62.0644 82.6506 53.4407 86.9107 52.4825 90.6975C51.5243 94.4843 55.8362 96.3777 60.6271 96.3777C65.4181 96.3777 75 79.8105 75 72.7103C75 65.6101 69.7299 61.35 64.4599 58.0365C59.1898 54.7231 45.7751 51.4097 45.296 47.1495C44.8169 42.8894 50.5661 43.3628 54.878 41.4694C59.1898 39.576 61.5853 27.7423 57.2734 21.1154C52.9616 14.4886 40.9842 15.4353 36.6723 26.7956C32.3604 38.1559 36.6723 40.5227 33.7977 42.4161C30.9232 44.3095 16.0712 32.9491 14.6339 27.7423C13.1966 22.5355 23.2576 8.80825 18.9458 2.18138C15.4963 -3.12011 7.28771 10.7016 3.61462 18.2752C2.01763 20.4842 -0.505606 27.5528 2.17733 38.1558Z" stroke="black"/>
<path d="M138.956 155.508C137.821 163.098 131.234 161.2 128.082 159.303C127.452 154.085 125.813 142.701 124.3 138.906C122.408 134.163 118.153 138.906 113.898 127.048C109.643 115.189 112.007 85.3053 112.007 81.0363C112.007 76.7672 109.17 60.1652 104.443 57.7935C99.7147 55.4218 90.7317 39.2941 92.1501 30.2816C93.5684 21.2691 94.9868 17.9487 100.66 18.423C106.334 18.8974 103.497 26.0125 104.443 33.602C105.388 41.1915 110.589 43.0888 113.898 44.0375C117.208 44.9862 126.664 47.8323 126.191 44.0375C125.718 40.2428 118.626 38.8198 117.681 35.025C116.735 31.2303 118.626 17 131.391 17C144.157 17 143.684 27.9099 142.738 35.025C141.793 42.1402 134.228 39.2941 132.81 43.0888C131.675 46.1246 134.859 46.5674 136.592 46.4092H169.687C190.017 46.4092 187.18 47.3579 187.653 53.9987C188.126 60.6395 176.779 59.217 169.687 61.5887C162.595 63.9604 142.266 58.2683 141.32 63.0117C140.374 67.7551 150.303 76.2933 157.868 83.4084C165.432 90.5236 161.65 90.9979 178.197 99.0618C194.745 107.126 199 101.908 199 106.177C199 110.446 194.272 113.292 185.289 115.189C176.306 117.086 161.65 104.279 161.65 109.971C161.65 115.663 143.211 119.458 138.956 129.894C134.701 140.329 140.374 146.021 138.956 155.508Z" stroke="black"/>
</svg>
